<svg width="100%" height="100%" xmlns="http://www.w3.org/2000/svg">
  <defs>
    <pattern id="grid" width="40" height="40" patternUnits="userSpaceOnUse">
      <path d="M 40 0 L 0 0 0 40" fill="none" stroke="rgba(255, 255, 255, 0.05)" stroke-width="1"/>
    </pattern>
    <radialGradient id="radialGradient" cx="50%" cy="50%" r="70%" fx="50%" fy="50%">
      <stop offset="0%" stop-color="rgba(79, 70, 229, 0.3)" />
      <stop offset="100%" stop-color="rgba(0, 0, 0, 0)" />
    </radialGradient>
  </defs>
  <rect width="100%" height="100%" fill="#0f172a" />
  <rect width="100%" height="100%" fill="url(#grid)" />
  <rect width="100%" height="100%" fill="url(#radialGradient)" />
  
  <!-- Abstract shapes -->
  <circle cx="10%" cy="20%" r="5%" fill="rgba(255, 255, 255, 0.03)" />
  <circle cx="85%" cy="30%" r="10%" fill="rgba(255, 255, 255, 0.02)" />
  <circle cx="40%" cy="80%" r="15%" fill="rgba(255, 255, 255, 0.01)" />
  
  <!-- Dots pattern -->
  <g fill="rgba(255, 255, 255, 0.2)">
    <circle cx="10%" cy="10%" r="1" />
    <circle cx="20%" cy="20%" r="1" />
    <circle cx="30%" cy="10%" r="1" />
    <circle cx="40%" cy="30%" r="1" />
    <circle cx="50%" cy="10%" r="1" />
    <circle cx="60%" cy="40%" r="1" />
    <circle cx="70%" cy="20%" r="1" />
    <circle cx="80%" cy="50%" r="1" />
    <circle cx="90%" cy="30%" r="1" />
    <circle cx="10%" cy="50%" r="1" />
    <circle cx="20%" cy="60%" r="1" />
    <circle cx="30%" cy="70%" r="1" />
    <circle cx="40%" cy="80%" r="1" />
    <circle cx="50%" cy="90%" r="1" />
    <circle cx="60%" cy="80%" r="1" />
    <circle cx="70%" cy="70%" r="1" />
    <circle cx="80%" cy="60%" r="1" />
    <circle cx="90%" cy="90%" r="1" />
  </g>
</svg> 